<?xml version="1.0" encoding="utf-8"?>
<!-- Generator: Adobe Illustrator 25.2.2, SVG Export Plug-In . SVG Version: 6.00 Build 0)  -->
<svg version="1.1" xmlns="http://www.w3.org/2000/svg" xmlns:xlink="http://www.w3.org/1999/xlink" x="0px" y="0px"
	 viewBox="0 0 960 640" style="enable-background:new 0 0 960 640;" xml:space="preserve">
<style type="text/css">
	.st0{display:none;}
	.st1{display:none;fill:#FF0000;stroke:#FF0000;stroke-miterlimit:10;}
	.st2{fill:#FFFFFF;}
</style>
<g id="Layer_1" class="st0">
</g>
<g id="Layer_2">
	<line class="st1" x1="188.85" y1="171.64" x2="830.45" y2="171.64"/>
	<polyline class="st1" points="199.07,412.52 798.34,412.52 851.62,412.52 	"/>
	<rect x="188.85" y="171.64" class="st2" width="31.05" height="119.06"/>
	
		<rect x="294.62" y="190.04" transform="matrix(-1.836970e-16 1 -1 -1.836970e-16 530.5787 -89.702)" class="st2" width="31.05" height="60.8"/>
	
		<rect x="383.47" y="366.59" transform="matrix(-1.836970e-16 1 -1 -1.836970e-16 795.9862 -1.9966)" class="st2" width="31.05" height="60.8"/>
	
		<rect x="648.02" y="369.66" transform="matrix(-1.836970e-16 1 -1 -1.836970e-16 1060.5336 -265.2281)" class="st2" width="29.73" height="55.98"/>
	
		<rect x="649.84" y="158.52" transform="matrix(-1.836970e-16 1 -1 -1.836970e-16 851.21 -478.1943)" class="st2" width="29.73" height="55.98"/>
	
		<rect x="476.48" y="201.33" transform="matrix(-1.836970e-16 1 -1 -1.836970e-16 712.4384 -271.5616)" class="st2" width="31.05" height="38.22"/>
	
		<rect x="476.48" y="377.89" transform="matrix(-1.836970e-16 1 -1 -1.836970e-16 888.9948 -95.0052)" class="st2" width="31.05" height="38.22"/>
	<rect x="414.21" y="204.56" class="st2" width="31.05" height="60.8"/>
	
		<rect x="294.62" y="366.59" transform="matrix(-1.836970e-16 1 -1 -1.836970e-16 707.1351 86.8544)" class="st2" width="31.05" height="60.8"/>
	<rect x="279.74" y="204.91" class="st2" width="31.05" height="207.6"/>
	<rect x="368.59" y="204.91" class="st2" width="31.05" height="207.6"/>
	<rect x="574.89" y="243.72" class="st2" width="31.05" height="168.79"/>
	<rect x="574.89" y="206.14" class="st2" width="31.05" height="31.05"/>
	<rect x="520.76" y="184.75" class="st2" width="31.05" height="227.77"/>
	
		<rect x="427.21" y="19.13" transform="matrix(6.123234e-17 -1 1 6.123234e-17 255.5695 625.0629)" class="st2" width="26.21" height="331.24"/>
	
		<rect x="727.44" y="159.27" transform="matrix(6.123234e-17 -1 1 6.123234e-17 555.7937 925.287)" class="st2" width="26.21" height="50.96"/>
	<path class="st2" d="M471.43,412.52L471.43,412.52c-8.57,0-15.52-6.95-15.52-15.52V220.44c0-8.57,6.95-15.52,15.52-15.52h0
		c8.57,0,15.52,6.95,15.52,15.52v176.56C486.96,405.57,480.01,412.52,471.43,412.52z"/>
	<path class="st2" d="M429.73,412.52L429.73,412.52c-8.57,0-15.52-6.95-15.52-15.52V220.44c0-8.57,6.95-15.52,15.52-15.52h0
		c8.57,0,15.52,6.95,15.52,15.52v176.56C445.26,405.57,438.31,412.52,429.73,412.52z"/>
	<path class="st2" d="M429.73,412.52L429.73,412.52c-8.57,0-15.52-6.95-15.52-15.52V220.44c0-8.57,6.95-15.52,15.52-15.52h0
		c8.57,0,15.52,6.95,15.52,15.52v176.56C445.26,405.57,438.31,412.52,429.73,412.52z"/>
	<path class="st2" d="M337.9,412.52L337.9,412.52c-8.57,0-15.52-6.95-15.52-15.52V220.44c0-8.57,6.95-15.52,15.52-15.52h0
		c8.57,0,15.52,6.95,15.52,15.52v176.56C353.43,405.57,346.48,412.52,337.9,412.52z"/>
	<path class="st2" d="M636.71,412.52L636.71,412.52c-8.57,0-15.52-6.95-15.52-15.52V187.17c0-8.57,6.95-15.52,15.52-15.52h0
		c8.57,0,15.52,6.95,15.52,15.52v209.83C652.23,405.57,645.28,412.52,636.71,412.52z"/>
	<path class="st2" d="M690.33,412.52L690.33,412.52c-8.57,0-15.52-6.95-15.52-15.52V187.17c0-8.57,6.95-15.52,15.52-15.52h0
		c8.57,0,15.52,6.95,15.52,15.52v209.83C705.85,405.57,698.9,412.52,690.33,412.52z"/>
	
		<rect x="218.11" y="302.65" transform="matrix(0.7071 -0.7071 0.7071 0.7071 -170.2237 264.0543)" class="st2" width="31.05" height="69.72"/>
	
		<rect x="744.32" y="236.73" transform="matrix(0.7071 -0.7071 0.7071 0.7071 30.5116 616.8359)" class="st2" width="31.05" height="69.72"/>
	<rect x="238.21" y="171.64" class="st2" width="31.05" height="240.88"/>
	<rect x="773.38" y="171.26" class="st2" width="31.05" height="240.88"/>
	<rect x="188.85" y="301.88" class="st2" width="31.05" height="110.64"/>
	<rect x="715.06" y="206.14" class="st2" width="31.05" height="206.38"/>
</g>
</svg>
