<?xml version="1.0" encoding="utf-8"?>
<!-- Generator: Adobe Illustrator 23.0.3, SVG Export Plug-In . SVG Version: 6.00 Build 0)  -->
<svg version="1.1" id="Layer_1" xmlns="http://www.w3.org/2000/svg" xmlns:xlink="http://www.w3.org/1999/xlink" x="0px" y="0px"
	 viewBox="0 0 960 640" style="enable-background:new 0 0 960 640;" xml:space="preserve">
<style type="text/css">
	.st0{display:none;fill:#111827;stroke:#FF0000;stroke-miterlimit:10;}
	.st1{fill:#111827;}
</style>
<g>
	<line class="st0" x1="188.9" y1="171.6" x2="830.5" y2="171.6"/>
	<polyline class="st0" points="199.1,412.5 798.3,412.5 851.6,412.5 	"/>
	<rect x="188.9" y="171.6" class="st1" width="31.1" height="119.1"/>
	<rect x="279.7" y="204.9" class="st1" width="60.8" height="31"/>
	<rect x="368.6" y="381.5" class="st1" width="60.8" height="31"/>
	<rect x="634.9" y="382.8" class="st1" width="56" height="29.7"/>
	<rect x="636.7" y="171.6" class="st1" width="56" height="29.7"/>
	<rect x="472.9" y="204.9" class="st1" width="38.2" height="31"/>
	<rect x="472.9" y="381.5" class="st1" width="38.2" height="31"/>
	<rect x="414.2" y="204.6" class="st1" width="31" height="60.8"/>
	<rect x="279.7" y="381.5" class="st1" width="60.8" height="31"/>
	<rect x="279.7" y="204.9" class="st1" width="31" height="207.6"/>
	<rect x="368.6" y="204.9" class="st1" width="31" height="207.6"/>
	<rect x="574.9" y="243.7" class="st1" width="31" height="168.8"/>
	<rect x="574.9" y="206.1" class="st1" width="31" height="31.1"/>
	<rect x="520.8" y="184.7" class="st1" width="31" height="227.8"/>
	<rect x="274.7" y="171.6" class="st1" width="331.2" height="26.2"/>
	<rect x="715.1" y="171.6" class="st1" width="51" height="26.2"/>
	<path class="st1" d="M471.4,412.5L471.4,412.5c-8.6,0-15.5-7-15.5-15.5V220.4c0-8.6,7-15.5,15.5-15.5l0,0c8.6,0,15.5,6.9,15.5,15.5
		V397C487,405.6,480,412.5,471.4,412.5z"/>
	<path class="st1" d="M429.7,412.5L429.7,412.5c-8.6,0-15.5-7-15.5-15.5V220.4c0-8.6,7-15.5,15.5-15.5l0,0c8.6,0,15.5,6.9,15.5,15.5
		V397C445.3,405.6,438.3,412.5,429.7,412.5z"/>
	<path class="st1" d="M429.7,412.5L429.7,412.5c-8.6,0-15.5-7-15.5-15.5V220.4c0-8.6,7-15.5,15.5-15.5l0,0c8.6,0,15.5,6.9,15.5,15.5
		V397C445.3,405.6,438.3,412.5,429.7,412.5z"/>
	<path class="st1" d="M337.9,412.5L337.9,412.5c-8.6,0-15.5-7-15.5-15.5V220.4c0-8.6,7-15.5,15.5-15.5l0,0c8.6,0,15.5,6.9,15.5,15.5
		V397C353.4,405.6,346.5,412.5,337.9,412.5z"/>
	<path class="st1" d="M636.7,412.5L636.7,412.5c-8.6,0-15.5-7-15.5-15.5V187.2c0-8.6,7-15.5,15.5-15.5l0,0c8.6,0,15.5,6.9,15.5,15.5
		V397C652.2,405.6,645.3,412.5,636.7,412.5z"/>
	<path class="st1" d="M690.3,412.5L690.3,412.5c-8.6,0-15.5-7-15.5-15.5V187.2c0-8.6,7-15.5,15.5-15.5l0,0c8.6,0,15.5,6.9,15.5,15.5
		V397C705.8,405.6,698.9,412.5,690.3,412.5z"/>
	
		<rect x="218.1" y="302.6" transform="matrix(0.7071 -0.7071 0.7071 0.7071 -170.2221 264.0561)" class="st1" width="31" height="69.7"/>
	
		<rect x="744.3" y="236.7" transform="matrix(0.7071 -0.7071 0.7071 0.7071 30.5081 616.8346)" class="st1" width="31" height="69.7"/>
	<rect x="238.2" y="171.6" class="st1" width="31.1" height="240.9"/>
	<rect x="773.4" y="171.3" class="st1" width="31" height="240.9"/>
	<rect x="188.9" y="301.9" class="st1" width="31.1" height="110.6"/>
	<rect x="715.1" y="206.1" class="st1" width="31" height="206.4"/>
</g>
</svg>
